:version 1.10
:name ASF
:units
  mass 1
  length 1
  angle deg
:documentation
  ASF file generated by Kaydara
:root
  axis xyz
  order  tx ty tz rx ry rz
  position 0 0 0
  orientation 0 0 0
:bonedata
  begin
    id 1
    name lfemurDummy
    direction 0.61522 -0.761478 0.204097
    length 5.68318
    axis 0 -0 0 xyz
  end
  begin
    id 2
    name lfemur
    direction 0.34202 -0.939693 -5.84747e-008
    length 16.9147
    axis 0 -0 20 xyz
    dof rx ry rz
    limits( -inf , inf )
( -inf , inf )
( -inf , inf )

  end
  begin
    id 3
    name ltibia
    direction 0.34202 -0.939693 1.20839e-009
    length 18.0532
    axis 0 -0 20 xyz
    dof rz ry rx
    limits( -inf , inf )
( -inf , inf )
( -inf , inf )

  end
  begin
    id 4
    name lfoot
    direction 0.0841971 -0.23133 0.969225
    length 5.23822
    axis -90 7.62852e-016 20 xyz
    dof ry rx rz
    limits( -inf , inf )
( -inf , inf )
( -inf , inf )

  end
  begin
    id 5
    name ltoes
    direction 0 0 0
    length 0
    axis 0 0 0 xyz
    dof rz ry rx
    limits( -inf , inf )
( -inf , inf )
( -inf , inf )

  end
  begin
    id 6
    name rfemurDummy
    direction -0.625247 -0.75382 0.202044
    length 5.74091
    axis 0 -0 0 xyz
  end
  begin
    id 7
    name rfemur
    direction -0.34202 -0.939693 -1.47013e-008
    length 16.4922
    axis 0 -0 -20 xyz
    dof rx ry rz
    limits( -inf , inf )
( -inf , inf )
( -inf , inf )

  end
  begin
    id 8
    name rtibia
    direction -0.34202 -0.939693 -7.74345e-010
    length 18.2421
    axis 0 -0 -20 xyz
    dof rz ry rx
    limits( -inf , inf )
( -inf , inf )
( -inf , inf )

  end
  begin
    id 9
    name rfoot
    direction -0.124331 -0.341598 0.931586
    length 5.45787
    axis -90 -7.62852e-016 -20 xyz
    dof ry rx rz
    limits( -inf , inf )
( -inf , inf )
( -inf , inf )

  end
  begin
    id 10
    name rtoes
    direction 0 0 0
    length 0
    axis 0 0 0 xyz
    dof rz ry rx
    limits( -inf , inf )
( -inf , inf )
( -inf , inf )

  end
  begin
    id 11
    name lowerbackDummy
    direction 0 0 0
    length 0
    axis 0 -0 0 xyz
  end
  begin
    id 12
    name lowerback
    direction -0.0218484 0.994884 -0.0986304
    length 4.45607
    axis 0 -0 0 xyz
    dof rx ry rz
    limits( -inf , inf )
( -inf , inf )
( -inf , inf )

  end
  begin
    id 13
    name upperback
    direction -0.00973057 0.999717 -0.0217111
    length 4.47449
    axis 0 -0 0 xyz
    dof rx ry rz
    limits( -inf , inf )
( -inf , inf )
( -inf , inf )

  end
  begin
    id 14
    name thorax
    direction -0.000928171 0.999699 0.0245198
    length 4.50973
    axis 0 -0 0 xyz
    dof rx ry rz
    limits( -inf , inf )
( -inf , inf )
( -inf , inf )

  end
  begin
    id 15
    name rclavicle
    direction -0.9009 0.425937 -0.0834055
    length 7.28587
    axis 0 -0 0 xyz
    dof rx ry rz
    limits( -inf , inf )
( -inf , inf )
( -inf , inf )

  end
  begin
    id 16
    name rhumerus
    direction -1 -2.23604e-007 -1.42637e-007
    length 13.5704
    axis 180 30 90 xyz
    dof rx ry rz
    limits( -inf , inf )
( -inf , inf )
( -inf , inf )

  end
  begin
    id 17
    name rradius
    direction -1 5.68281e-008 -4.4952e-007
    length 8.06782
    axis 180 30 90 xyz
    dof rz ry rx
    limits( -inf , inf )
( -inf , inf )
( -inf , inf )

  end
  begin
    id 18
    name rwrist
    direction -1 1.51393e-007 1.38143e-007
    length 4.03391
    axis -90 -90 0 xyz
    dof rz rx ry
    limits( -inf , inf )
( -inf , inf )
( -inf , inf )

  end
  begin
    id 19
    name rthumb
    direction 0 0 0
    length 0
    axis 0 0 0 xyz
    dof ry rx rz
    limits( -inf , inf )
( -inf , inf )
( -inf , inf )

  end
  begin
    id 20
    name rhand
    direction -1 -3.34077e-007 -5.59631e-007
    length 1.29744
    axis -90 -90 0 xyz
    dof ry rx rz
    limits( -inf , inf )
( -inf , inf )
( -inf , inf )

  end
  begin
    id 21
    name rfingers
    direction 0 0 0
    length 0
    axis 0 0 0 xyz
    dof rz ry rx
    limits( -inf , inf )
( -inf , inf )
( -inf , inf )

  end
  begin
    id 22
    name lclavicle
    direction 0.940017 0.332249 -0.0773232
    length 8.29589
    axis 0 -0 0 xyz
    dof rx ry rz
    limits( -inf , inf )
( -inf , inf )
( -inf , inf )

  end
  begin
    id 23
    name lhumerus
    direction 1 7.41158e-008 -1.44768e-008
    length 12.0042
    axis 180 -30 -90 xyz
    dof rx ry rz
    limits( -inf , inf )
( -inf , inf )
( -inf , inf )

  end
  begin
    id 24
    name lradius
    direction 1 -1.32972e-007 3.10821e-007
    length 8.1902
    axis 180 -30 -90 xyz
    dof rz ry rx
    limits( -inf , inf )
( -inf , inf )
( -inf , inf )

  end
  begin
    id 25
    name lwrist
    direction 1 3.08957e-007 4.01394e-007
    length 4.09509
    axis -90 90 0 xyz
    dof rz rx ry
    limits( -inf , inf )
( -inf , inf )
( -inf , inf )

  end
  begin
    id 26
    name lthumb
    direction 0 0 0
    length 0
    axis 0 0 0 xyz
    dof ry rx rz
    limits( -inf , inf )
( -inf , inf )
( -inf , inf )

  end
  begin
    id 27
    name lhand
    direction 1 -1.64125e-007 -6.99514e-007
    length 1.37229
    axis -90 90 0 xyz
    dof ry rx rz
    limits( -inf , inf )
( -inf , inf )
( -inf , inf )

  end
  begin
    id 28
    name lfingers
    direction 0 0 0
    length 0
    axis 0 0 0 xyz
    dof rz ry rx
    limits( -inf , inf )
( -inf , inf )
( -inf , inf )

  end
  begin
    id 29
    name lowerneck
    direction -0.030798 0.998024 0.0547665
    length 3.93918
    axis 0 -0 0 xyz
    dof rx ry rz
    limits( -inf , inf )
( -inf , inf )
( -inf , inf )

  end
  begin
    id 30
    name upperneck
    direction 0.0531588 0.996611 -0.0627736
    length 3.95491
    axis 0 -0 0 xyz
    dof rx ry rz
    limits( -inf , inf )
( -inf , inf )
( -inf , inf )

  end
  begin
    id 31
    name head
    direction 0 0 0
    length 0
    axis 0 0 0 xyz
    dof rx ry rz
    limits( -inf , inf )
( -inf , inf )
( -inf , inf )

  end
:hierarchy
  begin
    root lfemurDummy rfemurDummy lowerbackDummy
    lfemurDummy lfemur
    lfemur ltibia
    ltibia lfoot
    lfoot ltoes
    rfemurDummy rfemur
    rfemur rtibia
    rtibia rfoot
    rfoot rtoes
    lowerbackDummy lowerback
    lowerback upperback
    upperback thorax
    thorax rclavicle lclavicle lowerneck
    rclavicle rhumerus
    rhumerus rradius
    rradius rwrist
    rwrist rthumb rhand
    rhand rfingers
    lclavicle lhumerus
    lhumerus lradius
    lradius lwrist
    lwrist lthumb lhand
    lhand lfingers
    lowerneck upperneck
    upperneck head
  end

:SAMPLES-PER-SECOND 30
:FULLY-SPECIFIED
:DEGREES
82
root  -2.132626594 39.19310983 -0.5678133232 -0.1500244141 -36.66799927 1.867980957
lowerback  16.99640083 3.166189909 -6.577690125
upperback  7.953279972 2.83220005 -3.446439981
thorax  -1.133909941 1.220999956 -0.4295920134
lowerneck  6.018050194 -0.3911699951 -12.13710022
upperneck  7.735990047 -1.804640055 13.12479973
head  1.474449992 -1.097489953 6.02132988
lclavicle  0 -9.442270133e-015 7.951389973e-016
lhumerus  15.66819954 -17.52499962 77.54779816
lradius  1.92794141e-031 -2.958358659e-031 123.0920029
lwrist  0 2.869039094e-031 31.56139946
lhand  -1.496451383e-031 -27.76390076 20.11240005
lfingers  90 7.125020027 -90
lthumb  89.89689403 5.08795885 91.16245106
rclavicle  0 -9.442270133e-015 7.951389973e-016
rhumerus  37.45880127 -0.3823769987 -74.53970337
rradius  -2.457709216e-031 2.535450541e-031 134.1080017
rwrist  7.062250077e-031 -1.765562519e-031 -4.104800224
rhand  -7.920061211e-032 -33.2840004 9.303460121
rfingers  -90 -7.125020027 -90
rthumb  -92.93752616 -24.25625642 -97.11982154
rfemur  -31.82410049 1.538789988 12.07419968
rtibia  -0 0 80.84069824
rfoot  -0 -2.901489973 -15.88510036
rtoes  5.373923086 19.29304026 -105.8922705
lfemur  -39.4272995 2.196409941 -10.67059994
ltibia  -0 0 54.03649902
lfoot  -0 0.05872249976 -8.33010006
ltoes  -4.250644065 -19.5611806 -102.515957
83
root  -2.154511166 39.20000031 -0.7074533485 0.005981445313 -35.72099304 1.572998047
lowerback  17.25419998 2.909640074 -6.483439922
upperback  8.066140175 2.502759933 -3.254669905
thorax  -1.140179992 1.055840015 -0.227188006
lowerneck  6.532760143 -0.2582539916 -12.22039986
upperneck  7.282179832 -1.647819996 13.16889954
head  1.238729954 -1.039010048 6.050549984
lclavicle  0 -9.442270133e-015 7.951389973e-016
lhumerus  16.87969971 -17.54100037 77.26450348
lradius  1.912010311e-031 -2.968679944e-031 122.7839966
lwrist  -7.062250077e-031 3.420777381e-031 31.51280022
lhand  -1.496451383e-031 -27.76390076 20.11240005
lfingers  90 7.125020027 -90
lthumb  89.89689403 5.08795885 91.16245106
rclavicle  0 -9.442270133e-015 7.951389973e-016
rhumerus  38.33800125 -0.6741830111 -74.40509796
rradius  -2.443598936e-031 2.549052427e-031 133.7899933
rwrist  7.062250077e-031 -3.531125038e-031 -4.069180012
rhand  -7.920061211e-032 -33.2840004 9.303460121
rfingers  -90 -7.125020027 -90
rthumb  -92.93752616 -24.25625642 -97.11982154
rfemur  -33.23709869 2.299619913 11.55140018
rtibia  -0 0 79.69110107
rfoot  -0 -4.847070217 -17.88669968
rtoes  5.373923086 19.29304026 -105.8922705
lfemur  -39.11849976 1.127920032 -9.682459831
ltibia  -0 0 55.86190033
lfoot  -0 -0.7322390079 -9.286040306
ltoes  -4.250644065 -19.5611806 -102.515957
84
root  -2.183551112 39.16577917 -0.8297577618 -0.1350097656 -34.96899414 1.611022949
lowerback  17.47030067 2.730319977 -6.641970158
upperback  8.183679581 2.233319998 -3.182280064
thorax  -1.121700048 0.9145320058 -0.01828989945
lowerneck  6.64647007 -0.1841260046 -12.1875
upperneck  7.281559944 -1.560269952 13.20569992
head  1.208019972 -0.9986199737 6.057089806
lclavicle  0 -9.442270133e-015 7.951389973e-016
lhumerus  17.90679932 -17.88220024 77.08200073
lradius  1.907033919e-031 -2.971879148e-031 122.6880035
lwrist  0 5.517382873e-032 30.94309998
lhand  -1.496451383e-031 -27.76390076 20.11240005
lfingers  90 7.125020027 -90
lthumb  89.89689403 5.08795885 91.16245106
rclavicle  0 -9.442270133e-015 7.951389973e-016
rhumerus  39.10449982 -1.026260018 -74.40429688
rradius  -2.432453371e-031 2.55969034e-031 133.5399933
rwrist  3.531125038e-031 -0 -4.248030186
rhand  -7.920061211e-032 -33.2840004 9.303460121
rfingers  -90 -7.125020027 -90
rthumb  -92.93752616 -24.25625642 -97.11982154
rfemur  -34.38090134 3.368259907 10.57740021
rtibia  -0 0 78.11720276
rfoot  -0 -6.952970028 -19.70070076
rtoes  5.373923086 19.29304026 -105.8922705
lfemur  -38.52809906 0.08949050307 -8.957269669
ltibia  -0 0 58.00149918
lfoot  -0 -1.380849957 -10.78649998
ltoes  -4.250644065 -19.5611806 -102.515957
85
root  -2.228688818 39.11155641 -0.9284399626 -0.4790039062 -34.40299988 1.861022949
lowerback  17.58749962 2.600749969 -7.109620094
upperback  8.263440132 1.986359954 -3.139539957
thorax  -1.095860004 0.7770389915 0.330862999
lowerneck  6.961289883 -0.05692559853 -12.20090008
upperneck  7.295730114 -1.43027997 13.30290031
head  1.143249989 -0.9454330206 6.092060089
lclavicle  0 -9.442270133e-015 7.951389973e-016
lhumerus  19.16279984 -17.88710022 76.72859955
lradius  1.889572897e-031 -2.983011617e-031 122.3519974
lwrist  -7.062250077e-031 2.703517608e-031 30.77899933
lhand  -1.496451383e-031 -27.76390076 20.11240005
lfingers  90 7.125020027 -90
lthumb  89.89689403 5.08795885 91.16245106
rclavicle  0 -9.442270133e-015 7.951389973e-016
rhumerus  39.76369858 -1.253029943 -74.52020264
rradius  -2.421351849e-031 2.570194402e-031 133.2920074
rwrist  1.059337512e-030 -5.296687558e-031 -4.331799984
rhand  -7.920061211e-032 -33.2840004 9.303460121
rfingers  -90 -7.125020027 -90
rthumb  -92.93752616 -24.25625642 -97.11982154
rfemur  -35.20489883 4.760009766 9.240519524
rtibia  -0 0 76.09899902
rfoot  -0 -9.024359703 -21.11569977
rtoes  5.373923086 19.29304026 -105.8922705
lfemur  -37.58440018 -0.8488249779 -8.436519623
ltibia  -0 0 60.34149933
lfoot  -0 -1.68441999 -12.03549957
ltoes  -4.250644065 -19.5611806 -102.515957
86
root  -2.274533332 39.03222272 -1.020326671 -0.6699829102 -33.95100403 1.906005859
lowerback  17.6413002 2.488059998 -7.421370029
upperback  8.245869637 1.786470056 -3.141109943
thorax  -1.136019945 0.6720110178 0.5384629965
lowerneck  7.518249989 0.03405139968 -11.95040035
upperneck  7.245600224 -1.353489995 13.41469955
head  1.02523005 -0.9215319753 6.088150024
lclavicle  0 -9.442270133e-015 7.951389973e-016
lhumerus  20.63220024 -17.90390015 76.1733017
lradius  1.864150108e-031 -2.998964557e-031 121.8649979
lwrist  0 -3.310429724e-032 30.87680054
lhand  -1.496451383e-031 -27.76390076 20.11240005
lfingers  90 7.125020027 -90
lthumb  89.89689403 5.08795885 91.16245106
rclavicle  0 -9.442270133e-015 7.951389973e-016
rhumerus  40.19829941 -1.467129946 -74.79720306
rradius  -2.411059797e-031 2.57985168e-031 133.0630035
rwrist  3.531125038e-031 -1.765562519e-031 -4.300849915
rhand  -7.920061211e-032 -33.2840004 9.303460121
rfingers  -90 -7.125020027 -90
rthumb  -92.93752616 -24.25625642 -97.11982154
rfemur  -35.86040115 6.439330101 7.918950081
rtibia  -0 0 73.66850281
rfoot  -0 -10.35420036 -21.69479942
rtoes  5.373923086 19.29304026 -105.8922705
lfemur  -36.55279922 -1.602630019 -7.748260021
ltibia  -0 0 62.79299927
lfoot  -0 -1.769459963 -12.66530037
ltoes  -4.250644065 -19.5611806 -102.515957
87
root  -2.319488938 38.92555537 -1.096344463 -0.8120117187 -33.67500305 1.799987793
lowerback  17.63100052 2.388190031 -7.441460133
upperback  8.279760361 1.653489947 -3.243360043
thorax  -1.083150029 0.6052709818 0.4671329856
lowerneck  7.495389938 0.02251869999 -11.51729965
upperneck  7.596759796 -1.377460003 13.52700043
head  1.129580021 -0.9220619798 6.051970005
lclavicle  0 -9.442270133e-015 7.951389973e-016
lhumerus  22.04630089 -18.26840019 75.63040161
lradius  1.849787483e-031 -3.007844794e-031 121.5910034
lwrist  -7.062250077e-031 2.537996121e-031 30.81879997
lhand  -1.496451383e-031 -27.76390076 20.11240005
lfingers  90 7.125020027 -90
lthumb  89.89689403 5.08795885 91.16245106
rclavicle  0 -9.442270133e-015 7.951389973e-016
rhumerus  40.56060028 -1.705780029 -75.09649658
rradius  -2.397473031e-031 2.592482806e-031 132.7619934
rwrist  0 -1.765562519e-031 -4.132249832
rhand  -7.920061211e-032 -33.2840004 9.303460121
rfingers  -90 -7.125020027 -90
rthumb  -92.93752616 -24.25625642 -97.11982154
rfemur  -36.27140045 8.476329803 6.538300037
rtibia  -0 0 70.83989716
rfoot  -0 -11.01959991 -20.79050064
rtoes  5.373923086 19.29304026 -105.8922705
lfemur  -35.34769821 -2.156480074 -6.972899914
ltibia  -0 0 65.1765976
lfoot  -0 -2.154740095 -12.76019955
ltoes  -4.250644065 -19.5611806 -102.515957
88
root  -2.382977741 38.79911167 -1.141859978 -1.171020508 -33.42300415 1.84197998
lowerback  17.42320061 2.276789904 -7.603789806
upperback  8.43173027 1.509870052 -3.373140097
thorax  -0.801034987 0.5204979777 0.4538139999
lowerneck  7.23074007 0.01468059979 -11.12069988
upperneck  8.087400436 -1.391039968 13.62919998
head  1.312790036 -0.9078810215 6.01789999
lclavicle  0 -9.442270133e-015 7.951389973e-016
lhumerus  23.52330017 -18.5442009 75.09960175
lradius  1.831168224e-031 -3.019216284e-031 121.2369995
lwrist  -7.062250077e-031 2.041431663e-031 30.74010086
lhand  -1.496451383e-031 -27.76390076 20.11240005
lfingers  90 7.125020027 -90
lthumb  89.89689403 5.08795885 91.16245106
rclavicle  0 -9.442270133e-015 7.951389973e-016
rhumerus  40.95539856 -1.861400008 -75.30809784
rradius  -2.379726025e-031 2.608782873e-031 132.3710022
rwrist  7.062250077e-031 -0 -3.743079901
rhand  -7.920061211e-032 -33.2840004 9.303460121
rfingers  -90 -7.125020027 -90
rthumb  -92.93752616 -24.25625642 -97.11982154
rfemur  -36.30070114 10.62590027 4.944300175
rtibia  -0 0 67.7036972
rfoot  -0 -10.69270039 -18.6114006
rtoes  5.373923086 19.29304026 -105.8922705
lfemur  -33.75640106 -2.599920034 -6.439479828
ltibia  -0 0 67.29959869
lfoot  -0 -2.952250004 -12.66489983
ltoes  -4.250644065 -19.5611806 -102.515957
89
root  -2.463022179 38.64088884 -1.169808925 -1.481994629 -33.02799988 1.653015137
lowerback  16.97680092 2.085839987 -7.767250061
upperback  8.666330338 1.302459955 -3.342669964
thorax  -0.3053570092 0.3929579854 0.6262819767
lowerneck  7.200729847 0.05907930061 -10.82229996
upperneck  8.389519691 -1.34841001 13.73770046
head  1.396800041 -0.8766710162 6.002880096
lclavicle  0 -9.442270133e-015 7.951389973e-016
lhumerus  25.14649963 -18.64760017 74.56960297
lradius  1.807663854e-031 -3.033347232e-031 120.7919998
lwrist  -1.412450015e-030 7.724336022e-032 30.80249977
lhand  -1.496451383e-031 -27.76390076 20.11240005
lfingers  90 7.125020027 -90
lthumb  89.89689403 5.08795885 91.16245106
rclavicle  0 -9.442270133e-015 7.951389973e-016
rhumerus  41.3443985 -1.882400036 -75.43070221
rradius  -2.359575751e-031 2.627022328e-031 131.9299927
rwrist  3.531125038e-031 -0 -3.376470089
rhand  -7.920061211e-032 -33.2840004 9.303460121
rfingers  -90 -7.125020027 -90
rthumb  -92.93752616 -24.25625642 -97.11982154
rfemur  -35.96609879 12.70829964 3.591690063
rtibia  -0 0 64.44000244
rfoot  -0 -9.324540138 -16.15929985
rtoes  5.373923086 19.29304026 -105.8922705
lfemur  -31.90040016 -2.96491003 -5.744760036
ltibia  -0 0 69.07460022
lfoot  -0 -3.623320103 -12.43519974
ltoes  -4.250644065 -19.5611806 -102.515957
90
root  -2.557288943 38.44422168 -1.186008904 -1.547973633 -32.5980072 1.028015137
lowerback  16.73649979 1.847480059 -7.701920033
upperback  8.629850388 1.037439942 -3.142090082
thorax  -0.2060060054 0.2592299879 0.8519459963
lowerneck  7.436649799 0.1275880039 -10.65849972
upperneck  8.7706604 -1.313869953 13.83769989
head  1.462569952 -0.8623999953 6.011050224
lclavicle  0 -9.442270133e-015 7.951389973e-016
lhumerus  26.26689911 -18.76720047 74.38269806
lradius  1.785379987e-031 -3.046516427e-031 120.3720016
lwrist  -7.062250077e-031 1.875910177e-031 30.83659935
lhand  -1.496451383e-031 -27.76390076 20.11240005
lfingers  90 7.125020027 -90
lthumb  89.89689403 5.08795885 91.16245106
rclavicle  0 -9.442270133e-015 7.951389973e-016
rhumerus  41.15980148 -1.669129968 -75.50289917
rradius  -2.341132845e-031 2.643471399e-031 131.529007
rwrist  7.062250077e-031 -0 -3.218569994
rhand  -7.920061211e-032 -33.2840004 9.303460121
rfingers  -90 -7.125020027 -90
rthumb  -92.93752616 -24.25625642 -97.11982154
rfemur  -35.44940186 14.72210026 2.676270008
rtibia  -0 0 61.51160049
rfoot  -0 -11.26889992 -12.33199978
rtoes  5.373923086 19.29304026 -105.8922705
lfemur  -29.88489914 -3.223649979 -4.647890091
ltibia  -0 0 70.37069702
lfoot  -0 -3.795469999 -12.01990032
ltoes  -4.250644065 -19.5611806 -102.515957
